<svg xmlns="http://www.w3.org/2000/svg" width="66" height="66" viewBox="0 0 66 66"><defs><clipPath id="wzp8a"><path fill="#fff" d="M33 .498C15.05.498.499 15.048.499 33c0 17.95 14.551 32.501 32.5 32.501C50.95 65.5 65.502 50.95 65.502 33c0-17.95-14.551-32.5-32.501-32.5z"/></clipPath></defs><g><g><path fill="none" stroke="#c6cfd2" stroke-miterlimit="50" stroke-width="6" d="M33 .498C15.05.498.499 15.048.499 33c0 17.95 14.551 32.501 32.5 32.501C50.95 65.5 65.502 50.95 65.502 33c0-17.95-14.551-32.5-32.501-32.5z" clip-path="url(&quot;#wzp8a&quot;)"/></g><g><path fill="#c6cfd2" d="M44.05 32.999c0 .82-.666 1.486-1.487 1.486H26.425l6.385 6.376a1.487 1.487 0 0 1-2.103 2.102l-8.927-8.915c-.003-.003-.003-.01-.008-.012a1.471 1.471 0 0 1-.313-1.604c.074-.182.185-.344.321-.482l8.927-8.915a1.487 1.487 0 0 1 2.104 2.101l-6.386 6.377h16.138c.82 0 1.487.666 1.487 1.486z"/></g></g></svg>