<svg xmlns="http://www.w3.org/2000/svg" width="68" height="68" viewBox="0 0 68 68"><g><g><path fill="#18a3dd" d="M68 34c0 18.778-15.222 34-34 34S0 52.778 0 34 15.222 0 34 0s34 15.222 34 34zm-46.916-1.608c0 1.087.212 2.1.635 3.037a7.38 7.38 0 0 0 1.745 2.425c.74.68 1.624 1.217 2.652 1.61a9.21 9.21 0 0 0 3.31.588 9.633 9.633 0 0 0 4.442-1.065c1.39-.71 2.613-1.746 3.672-3.105l.181.86c.242 1.09.763 1.913 1.564 2.472.8.558 1.972.838 3.513.838.544 0 1.164-.038 1.859-.113.695-.076 1.435-.19 2.221-.34v-7.253c-.786-.06-1.33-.25-1.632-.567-.302-.317-.453-.884-.453-1.7v-4.623c0-3.384-1.028-5.924-3.083-7.617-2.055-1.692-4.986-2.538-8.794-2.538-4.02 0-7.6 1.013-10.744 3.037l2.494 5.35c1.269-.847 2.477-1.49 3.626-1.927 1.148-.438 2.403-.657 3.762-.657 1.451 0 2.5.27 3.15.816.651.544.976 1.375.976 2.492v.726c-1.27-.603-2.872-.907-4.805-.907-1.512 0-2.895.198-4.149.59-1.254.393-2.334.952-3.24 1.678a7.952 7.952 0 0 0-2.132 2.583c-.514.997-.77 2.101-.77 3.31zm25.831 12.69H21.401V52.7h25.514zM29.198 31.621c0-.785.348-1.436 1.043-1.95.695-.513 1.571-.77 2.63-.77.483 0 1.026.06 1.631.18.605.122 1.163.273 1.678.454v1.768c0 .302-.106.597-.317.885a3.69 3.69 0 0 1-.816.792 5.712 5.712 0 0 1-1.451.657 5.38 5.38 0 0 1-1.587.25c-.816 0-1.489-.21-2.017-.634-.529-.423-.794-.967-.794-1.632z"/></g></g></svg>