<svg xmlns="http://www.w3.org/2000/svg" width="66" height="66" viewBox="0 0 66 66"><defs><clipPath id="p7g8a"><path fill="#fff" d="M33 .498C50.95.498 65.5 15.048 65.5 33 65.501 50.949 50.95 65.5 33 65.5 15.05 65.5.499 50.95.499 33c0-17.95 14.551-32.5 32.5-32.5z"/></clipPath></defs><g><g><path fill="none" stroke="#c6cfd2" stroke-miterlimit="50" stroke-width="6" d="M33 .498C50.95.498 65.5 15.048 65.5 33 65.501 50.949 50.95 65.5 33 65.5 15.05 65.5.499 50.95.499 33c0-17.95 14.551-32.5 32.5-32.5z" clip-path="url(&quot;#p7g8a&quot;)"/></g><g><path fill="#c6cfd2" d="M21.95 32.999c0 .82.666 1.486 1.487 1.486h16.138l-6.386 6.376a1.487 1.487 0 0 0 2.104 2.102l8.926-8.915c.003-.003.003-.01.01-.012a1.472 1.472 0 0 0 .312-1.604 1.478 1.478 0 0 0-.322-.482l-8.926-8.915a1.487 1.487 0 0 0-2.104 2.101l6.386 6.377H23.437c-.82 0-1.488.666-1.488 1.486z"/></g></g></svg>